# xmcd
#
# Track frame offsets: 
#        150
#        14455
#        27515
#        37310
#        47233
#        59748
#        70925
#        83205
#        93863
#        103410
#        113323
#        125698
#
# Disc length: 1804 seconds
#
# Revision: 4
# Processed by: cddbd v1.5.2PL0 Copyright (c) Steve Scherf et al.
# Submitted via: ExactAudioCopy v1.0b1
#
DISCID=ab070a0c
DTITLE=Johnny Cash - Ragged Old Flag
DYEAR=1974
DGENRE=Country
TTITLE0=Ragged old flag
TTITLE1=Don't go near the water
TTITLE2=All I do is drive
TTITLE3=Southern Comfort
TTITLE4=King of the hill
TTITLE5=Pie in the sky
TTITLE6=Lonesome to the bone
TTITLE7=While I've got it on my mind
TTITLE8=Good morning friend
TTITLE9=I'm a worried man
TTITLE10=Please don't let me out
TTITLE11=What on earth will you do (for heaven's sake)
EXTD=
EXTT0=
EXTT1=
EXTT2=
EXTT3=
EXTT4=
EXTT5=
EXTT6=
EXTT7=
EXTT8=
EXTT9=
EXTT10=
EXTT11=
PLAYORDER=
